<?xml version="1.0" encoding="utf-8"?>
<!-- Generated by IcoMoon.io -->
<!DOCTYPE svg PUBLIC "-//W3C//DTD SVG 1.1//EN" "http://www.w3.org/Graphics/SVG/1.1/DTD/svg11.dtd">
<svg version="1.1" xmlns="http://www.w3.org/2000/svg" xmlns:xlink="http://www.w3.org/1999/xlink" width="48" height="48" viewBox="0 0 48 48">
	<path d="M37.5 43.5h-24v-33h10.5v13.688l5.312-4.032 5.188 4.032v-13.688h6v30c0 1.656-1.344 3-3 3zM29.312 18.188l-3.812 3v-12.188h7.5v12.188l-3.688-3zM9 7.5v1.5c0 0.828 0.672 1.5 1.5 1.5h1.5v33h-1.5c-1.656 0-3-1.344-3-3v-33c0-1.656 1.344-3 3-3h27c1.107 0 2.064 0.606 2.584 1.5h-29.584c-0.828 0-1.5 0.671-1.5 1.5z" fill="#444444" />
</svg>
