<?xml version="1.0" encoding="utf-8"?>
<!-- Generated by IcoMoon.io -->
<!DOCTYPE svg PUBLIC "-//W3C//DTD SVG 1.1//EN" "http://www.w3.org/Graphics/SVG/1.1/DTD/svg11.dtd">
<svg version="1.1" xmlns="http://www.w3.org/2000/svg" xmlns:xlink="http://www.w3.org/1999/xlink" width="14" height="16" viewBox="0 0 14 16">
	<path d="M13.714 8q0 1.393-0.545 2.661t-1.464 2.188-2.188 1.464-2.661 0.545-2.661-0.545-2.188-1.464-1.464-2.188-0.545-2.661q0-1.625 0.719-3.063t2.022-2.411q0.384-0.286 0.853-0.223t0.746 0.446q0.286 0.375 0.219 0.844t-0.442 0.754q-0.875 0.661-1.353 1.616t-0.478 2.036q0 0.929 0.362 1.772t0.978 1.46 1.46 0.978 1.772 0.362 1.772-0.362 1.46-0.978 0.978-1.46 0.362-1.772q0-1.080-0.478-2.036t-1.353-1.616q-0.375-0.286-0.442-0.754t0.219-0.844q0.277-0.384 0.75-0.446t0.848 0.223q1.304 0.973 2.022 2.411t0.719 3.063zM8 1.143v5.714q0 0.464-0.339 0.804t-0.804 0.339-0.804-0.339-0.339-0.804v-5.714q0-0.464 0.339-0.804t0.804-0.339 0.804 0.339 0.339 0.804z" fill="#fafafa" />
</svg>
