<?xml version="1.0" encoding="utf-8"?>
<!-- Generated by IcoMoon.io -->
<!DOCTYPE svg PUBLIC "-//W3C//DTD SVG 1.1//EN" "http://www.w3.org/Graphics/SVG/1.1/DTD/svg11.dtd">
<svg version="1.1" xmlns="http://www.w3.org/2000/svg" xmlns:xlink="http://www.w3.org/1999/xlink" width="16" height="16" viewBox="0 0 16 16">
	<path d="M14.578 14.98l-0.354 0.354c-0.393 0.392-1.027 0.392-1.419 0l-2.838-2.837c-0.328-0.329-0.364-0.822-0.14-1.206l-1.552-1.551c-0.835 0.619-1.864 0.989-2.982 0.989-2.77 0-5.016-2.245-5.016-5.016 0-2.771 2.245-5.016 5.016-5.016 2.771 0 5.016 2.245 5.016 5.016 0 1.29-0.49 2.462-1.29 3.35l1.518 1.518c0.384-0.223 0.877-0.188 1.205 0.142l2.838 2.837c0.392 0.393 0.392 1.028 0.001 1.419zM9.044 5.694c0-2.078-1.684-3.761-3.762-3.761s-3.762 1.683-3.762 3.761 1.684 3.761 3.761 3.761 3.763-1.684 3.763-3.761z" fill="#444444" />
</svg>
