<?xml version="1.0" encoding="utf-8"?>
<!-- Generated by IcoMoon.io -->
<!DOCTYPE svg PUBLIC "-//W3C//DTD SVG 1.1//EN" "http://www.w3.org/Graphics/SVG/1.1/DTD/svg11.dtd">
<svg version="1.1" xmlns="http://www.w3.org/2000/svg" xmlns:xlink="http://www.w3.org/1999/xlink" width="48" height="48" viewBox="0 0 48 48">
	<path d="M42 13.5h-2.937v-4.407l-6.063-0.093 0.032 4.5h-18.219l0.125-4.5-5.937 0.093v4.5l-3-0.093c-1.656 0-3 1.344-3 3v21c0 1.656 1.344 3 3 3h36c1.656 0 3-1.344 3-3v-21c0-1.656-1.344-3-3-3zM34.5 10.5h3v6h-3v-6zM15 20.718c1.812 0 3.282 1.93 3.282 4.312s-1.47 4.313-3.282 4.313-3.282-1.93-3.282-4.313 1.47-4.313 3.282-4.313zM10.5 10.5h3v6h-3v-6zM8.5 34.422c0 0 0.356-2.853 1.164-3.391 0.807-0.538 3.135-0.897 3.135-0.897s1.509 1.612 2.151 1.612c0.64 0 2.149-1.612 2.149-1.612s2.328 0.357 3.137 0.897c0.95 0.633 1.187 3.391 1.187 3.391h-12.923zM39 33h-13.5v-1.5h13.5v1.5zM39 30h-13.5v-1.5h13.5v1.5zM39 27h-13.5v-1.5h13.5v1.5zM39 24h-13.5v-1.5h13.5v1.5z" fill="#444444" />
</svg>
