<?xml version="1.0" encoding="utf-8"?>
<!-- Generated by IcoMoon.io -->
<!DOCTYPE svg PUBLIC "-//W3C//DTD SVG 1.1//EN" "http://www.w3.org/Graphics/SVG/1.1/DTD/svg11.dtd">
<svg version="1.1" xmlns="http://www.w3.org/2000/svg" xmlns:xlink="http://www.w3.org/1999/xlink" width="16" height="16" viewBox="0 0 16 16">
	<path d="M14 4.5h-0.979v-1.469l-2.021-0.031 0.011 1.5h-6.073l0.042-1.5-1.979 0.031v1.5l-1-0.031c-0.552 0-1 0.448-1 1v7c0 0.552 0.448 1 1 1h12c0.552 0 1-0.448 1-1v-7c0-0.552-0.448-1-1-1zM11.5 3.5h1v2h-1v-2zM5 6.906c0.604 0 1.094 0.644 1.094 1.437s-0.49 1.438-1.094 1.438-1.094-0.643-1.094-1.438 0.49-1.438 1.094-1.438zM3.5 3.5h1v2h-1v-2zM2.833 11.474c0 0 0.119-0.951 0.388-1.13 0.269-0.179 1.045-0.299 1.045-0.299s0.503 0.537 0.717 0.537c0.213 0 0.716-0.537 0.716-0.537s0.776 0.119 1.046 0.299c0.316 0.211 0.396 1.13 0.396 1.13h-4.308zM13 11h-4.5v-0.5h4.5v0.5zM13 10h-4.5v-0.5h4.5v0.5zM13 9h-4.5v-0.5h4.5v0.5zM13 8h-4.5v-0.5h4.5v0.5z" fill="#fafafa" />
</svg>
