<?xml version="1.0" encoding="utf-8"?>
<!-- Generated by IcoMoon.io -->
<!DOCTYPE svg PUBLIC "-//W3C//DTD SVG 1.1//EN" "http://www.w3.org/Graphics/SVG/1.1/DTD/svg11.dtd">
<svg version="1.1" xmlns="http://www.w3.org/2000/svg" xmlns:xlink="http://www.w3.org/1999/xlink" width="15" height="16" viewBox="0 0 15 16">
	<path d="M11.429 13.143q0-0.232-0.17-0.402t-0.402-0.17-0.402 0.17-0.17 0.402 0.17 0.402 0.402 0.17 0.402-0.17 0.17-0.402zM13.714 13.143q0-0.232-0.17-0.402t-0.402-0.17-0.402 0.17-0.17 0.402 0.17 0.402 0.402 0.17 0.402-0.17 0.17-0.402zM14.857 11.143v2.857q0 0.357-0.25 0.607t-0.607 0.25h-13.143q-0.357 0-0.607-0.25t-0.25-0.607v-2.857q0-0.357 0.25-0.607t0.607-0.25h3.813q0.188 0.5 0.629 0.821t0.987 0.321h2.286q0.545 0 0.987-0.321t0.629-0.821h3.813q0.357 0 0.607 0.25t0.25 0.607zM11.955 5.357q-0.152 0.357-0.527 0.357h-2.286v4q0 0.232-0.17 0.402t-0.402 0.17h-2.286q-0.232 0-0.402-0.17t-0.17-0.402v-4h-2.286q-0.375 0-0.527-0.357-0.152-0.348 0.125-0.616l4-4q0.161-0.17 0.402-0.17t0.402 0.17l4 4q0.277 0.268 0.125 0.616z" fill="#444444" />
</svg>
