<?xml version="1.0" encoding="utf-8"?>
<!-- Generated by IcoMoon.io -->
<!DOCTYPE svg PUBLIC "-//W3C//DTD SVG 1.1//EN" "http://www.w3.org/Graphics/SVG/1.1/DTD/svg11.dtd">
<svg version="1.1" xmlns="http://www.w3.org/2000/svg" xmlns:xlink="http://www.w3.org/1999/xlink" width="15" height="16" viewBox="0 0 15 16">
	<path d="M1.143 14.857h2.571v-2.571h-2.571v2.571zM4.286 14.857h2.857v-2.571h-2.857v2.571zM1.143 11.714h2.571v-2.857h-2.571v2.857zM4.286 11.714h2.857v-2.857h-2.857v2.857zM1.143 8.286h2.571v-2.571h-2.571v2.571zM7.714 14.857h2.857v-2.571h-2.857v2.571zM4.286 8.286h2.857v-2.571h-2.857v2.571zM11.143 14.857h2.571v-2.571h-2.571v2.571zM7.714 11.714h2.857v-2.857h-2.857v2.857zM4.571 4v-2.571q0-0.116-0.085-0.201t-0.201-0.085h-0.571q-0.116 0-0.201 0.085t-0.085 0.201v2.571q0 0.116 0.085 0.201t0.201 0.085h0.571q0.116 0 0.201-0.085t0.085-0.201zM11.143 11.714h2.571v-2.857h-2.571v2.857zM7.714 8.286h2.857v-2.571h-2.857v2.571zM11.143 8.286h2.571v-2.571h-2.571v2.571zM11.429 4v-2.571q0-0.116-0.085-0.201t-0.201-0.085h-0.571q-0.116 0-0.201 0.085t-0.085 0.201v2.571q0 0.116 0.085 0.201t0.201 0.085h0.571q0.116 0 0.201-0.085t0.085-0.201zM14.857 3.429v11.429q0 0.464-0.339 0.804t-0.804 0.339h-12.571q-0.464 0-0.804-0.339t-0.339-0.804v-11.429q0-0.464 0.339-0.804t0.804-0.339h1.143v-0.857q0-0.589 0.42-1.009t1.009-0.42h0.571q0.589 0 1.009 0.42t0.42 1.009v0.857h3.429v-0.857q0-0.589 0.42-1.009t1.009-0.42h0.571q0.589 0 1.009 0.42t0.42 1.009v0.857h1.143q0.464 0 0.804 0.339t0.339 0.804z" fill="#444444" />
</svg>
