<?xml version="1.0" encoding="utf-8"?>
<!-- Generated by IcoMoon.io -->
<!DOCTYPE svg PUBLIC "-//W3C//DTD SVG 1.1//EN" "http://www.w3.org/Graphics/SVG/1.1/DTD/svg11.dtd">
<svg version="1.1" xmlns="http://www.w3.org/2000/svg" xmlns:xlink="http://www.w3.org/1999/xlink" width="16" height="16" viewBox="0 0 16 16">
	<path d="M15.813 13.714q0 0.473-0.33 0.804l-0.955 0.964q-0.348 0.33-0.813 0.33-0.473 0-0.804-0.33l-3.241-3.25q-0.339-0.321-0.339-0.804 0-0.473 0.384-0.857l-2.286-2.286-1.125 1.125q-0.125 0.125-0.304 0.125t-0.304-0.125q0.018 0.018 0.112 0.107t0.112 0.116 0.089 0.103 0.089 0.121 0.054 0.121 0.049 0.147 0.013 0.161q0 0.339-0.25 0.607-0.027 0.027-0.147 0.161t-0.17 0.183-0.165 0.147-0.196 0.138-0.196 0.080-0.232 0.040q-0.357 0-0.607-0.25l-3.643-3.643q-0.25-0.25-0.25-0.607 0-0.116 0.040-0.232t0.080-0.196 0.138-0.196 0.147-0.165 0.183-0.17 0.161-0.147q0.268-0.25 0.607-0.25 0.089 0 0.161 0.013t0.147 0.049 0.121 0.054 0.121 0.089 0.103 0.089 0.116 0.112 0.107 0.112q-0.125-0.125-0.125-0.304t0.125-0.304l3.107-3.107q0.125-0.125 0.304-0.125t0.304 0.125q-0.018-0.018-0.112-0.107t-0.112-0.116-0.089-0.103-0.089-0.121-0.054-0.121-0.049-0.147-0.013-0.161q0-0.339 0.25-0.607 0.027-0.027 0.147-0.161t0.17-0.183 0.165-0.147 0.196-0.138 0.196-0.080 0.232-0.040q0.357 0 0.607 0.25l3.643 3.643q0.25 0.25 0.25 0.607 0 0.116-0.040 0.232t-0.080 0.196-0.138 0.196-0.147 0.165-0.183 0.17-0.161 0.147q-0.268 0.25-0.607 0.25-0.089 0-0.161-0.013t-0.147-0.049-0.121-0.054-0.121-0.089-0.103-0.089-0.116-0.112-0.107-0.112q0.125 0.125 0.125 0.304t-0.125 0.304l-1.125 1.125 2.286 2.286q0.384-0.384 0.857-0.384 0.464 0 0.813 0.33l3.241 3.241q0.33 0.348 0.33 0.813z" fill="#444444" />
</svg>
