<?xml version="1.0" encoding="utf-8"?>
<!-- Generated by IcoMoon.io -->
<!DOCTYPE svg PUBLIC "-//W3C//DTD SVG 1.1//EN" "http://www.w3.org/Graphics/SVG/1.1/DTD/svg11.dtd">
<svg version="1.1" xmlns="http://www.w3.org/2000/svg" xmlns:xlink="http://www.w3.org/1999/xlink" width="15" height="16" viewBox="0 0 15 16">
	<path d="M14.634 4.268q0.357 0.509 0.161 1.152l-2.455 8.089q-0.17 0.571-0.683 0.96t-1.094 0.388h-8.241q-0.688 0-1.326-0.478t-0.888-1.174q-0.214-0.598-0.018-1.134 0-0.036 0.027-0.241t0.036-0.33q0.009-0.071-0.027-0.192t-0.027-0.174q0.018-0.098 0.071-0.188t0.147-0.21 0.147-0.21q0.205-0.339 0.402-0.817t0.268-0.817q0.027-0.089 0.004-0.268t-0.004-0.25q0.027-0.098 0.152-0.25t0.152-0.205q0.188-0.321 0.375-0.821t0.223-0.804q0.009-0.080-0.022-0.286t0.004-0.25q0.036-0.116 0.196-0.272t0.196-0.201q0.17-0.232 0.379-0.754t0.246-0.862q0.009-0.071-0.027-0.228t-0.018-0.237q0.018-0.071 0.080-0.161t0.161-0.205 0.152-0.188q0.071-0.107 0.147-0.272t0.134-0.313 0.143-0.321 0.174-0.286 0.237-0.21 0.321-0.103 0.424 0.049l-0.009 0.027q0.339-0.080 0.455-0.080h6.795q0.661 0 1.018 0.5t0.161 1.161l-2.446 8.089q-0.321 1.063-0.638 1.371t-1.147 0.308h-7.759q-0.241 0-0.339 0.134-0.098 0.143-0.009 0.384 0.214 0.625 1.286 0.625h8.241q0.259 0 0.5-0.138t0.313-0.371l2.679-8.813q0.063-0.196 0.045-0.509 0.339 0.134 0.527 0.384zM5.134 4.286q-0.036 0.116 0.018 0.201t0.179 0.085h5.429q0.116 0 0.228-0.085t0.147-0.201l0.188-0.571q0.036-0.116-0.018-0.201t-0.179-0.085h-5.429q-0.116 0-0.228 0.085t-0.147 0.201zM4.393 6.571q-0.036 0.116 0.018 0.201t0.179 0.085h5.429q0.116 0 0.228-0.085t0.147-0.201l0.188-0.571q0.036-0.116-0.018-0.201t-0.179-0.085h-5.429q-0.116 0-0.228 0.085t-0.147 0.201z" fill="#444444" />
</svg>
