<?xml version="1.0" encoding="utf-8"?>
<!-- Generated by IcoMoon.io -->
<!DOCTYPE svg PUBLIC "-//W3C//DTD SVG 1.1//EN" "http://www.w3.org/Graphics/SVG/1.1/DTD/svg11.dtd">
<svg version="1.1" xmlns="http://www.w3.org/2000/svg" xmlns:xlink="http://www.w3.org/1999/xlink" width="16" height="16" viewBox="0 0 16 16">
	<path d="M16 8q0 0.232-0.17 0.402l-2.286 2.286q-0.17 0.17-0.402 0.17t-0.402-0.17-0.17-0.402v-1.143h-3.429v3.429h1.143q0.232 0 0.402 0.17t0.17 0.402-0.17 0.402l-2.286 2.286q-0.17 0.17-0.402 0.17t-0.402-0.17l-2.286-2.286q-0.17-0.17-0.17-0.402t0.17-0.402 0.402-0.17h1.143v-3.429h-3.429v1.143q0 0.232-0.17 0.402t-0.402 0.17-0.402-0.17l-2.286-2.286q-0.17-0.17-0.17-0.402t0.17-0.402l2.286-2.286q0.17-0.17 0.402-0.17t0.402 0.17 0.17 0.402v1.143h3.429v-3.429h-1.143q-0.232 0-0.402-0.17t-0.17-0.402 0.17-0.402l2.286-2.286q0.17-0.17 0.402-0.17t0.402 0.17l2.286 2.286q0.17 0.17 0.17 0.402t-0.17 0.402-0.402 0.17h-1.143v3.429h3.429v-1.143q0-0.232 0.17-0.402t0.402-0.17 0.402 0.17l2.286 2.286q0.17 0.17 0.17 0.402z" fill="#444444" />
</svg>
