<?xml version="1.0" encoding="utf-8"?>
<!-- Generated by IcoMoon.io -->
<!DOCTYPE svg PUBLIC "-//W3C//DTD SVG 1.1//EN" "http://www.w3.org/Graphics/SVG/1.1/DTD/svg11.dtd">
<svg version="1.1" xmlns="http://www.w3.org/2000/svg" xmlns:xlink="http://www.w3.org/1999/xlink" width="16" height="16" viewBox="0 0 16 16">
	<path d="M3.029 3.417l0.343 0.343-1.404 1.404 1.094 1.094 1.41-1.41 0.321 0.321-1.41 1.411 1.080 1.079 3.208-3.208-3.906-3.883-3.196 3.196 1.057 1.058 1.404-1.405zM11.55 8.329l-3.208 3.209 1.079 1.079 1.411-1.411 0.321 0.321-1.411 1.411 1.094 1.094 1.403-1.404 0.343 0.343-1.403 1.404 1.056 1.057 3.197-3.197-3.883-3.905zM14.911 4.226c0.39-0.391 0.393-1.022 0.006-1.41l-1.756-1.756c-0.387-0.387-1.020-0.385-1.41 0.006l-1.085 1.085 3.16 3.16 1.085-1.085zM1.699 12.971l1.312 1.312 2.642-0.938-3.015-3.015-0.938 2.642zM10.325 2.471l-7.442 7.443 3.184 3.184 7.443-7.443-3.185-3.184zM4.329 9.908l5.99-5.99 0.349 0.349-5.991 5.991-0.348-0.35zM5.027 10.607l5.99-5.99 0.349 0.349-5.99 5.99-0.348-0.348zM5.724 11.304l5.99-5.99 0.348 0.349-5.99 5.99-0.349-0.349zM0.977 15.005l1.533-0.559-0.974-0.975-0.558 1.533z" fill="#444444" />
</svg>
