<?xml version="1.0" encoding="utf-8"?>
<!-- Generated by IcoMoon.io -->
<!DOCTYPE svg PUBLIC "-//W3C//DTD SVG 1.1//EN" "http://www.w3.org/Graphics/SVG/1.1/DTD/svg11.dtd">
<svg version="1.1" xmlns="http://www.w3.org/2000/svg" xmlns:xlink="http://www.w3.org/1999/xlink" width="16" height="16" viewBox="0 0 16 16">
	<path d="M9.143 4.036l2.821 2.821-5.107 5.107-2.821-2.821zM7.259 12.777l5.518-5.518q0.17-0.17 0.17-0.402t-0.17-0.402l-3.232-3.232q-0.161-0.161-0.402-0.161t-0.402 0.161l-5.518 5.518q-0.17 0.17-0.17 0.402t0.17 0.402l3.232 3.232q0.161 0.161 0.402 0.161t0.402-0.161zM15.196 7.089l-8.098 8.107q-0.33 0.33-0.808 0.33t-0.808-0.33l-1.125-1.125q0.5-0.5 0.5-1.214t-0.5-1.214-1.214-0.5-1.214 0.5l-1.116-1.125q-0.33-0.33-0.33-0.808t0.33-0.808l8.098-8.089q0.33-0.33 0.808-0.33t0.808 0.33l1.116 1.116q-0.5 0.5-0.5 1.214t0.5 1.214 1.214 0.5 1.214-0.5l1.125 1.116q0.33 0.33 0.33 0.808t-0.33 0.808z" fill="#444444" />
</svg>
