<?xml version="1.0" encoding="utf-8"?>
<!-- Generated by IcoMoon.io -->
<!DOCTYPE svg PUBLIC "-//W3C//DTD SVG 1.1//EN" "http://www.w3.org/Graphics/SVG/1.1/DTD/svg11.dtd">
<svg version="1.1" xmlns="http://www.w3.org/2000/svg" xmlns:xlink="http://www.w3.org/1999/xlink" width="17" height="16" viewBox="0 0 17 16">
	<path d="M4.215 4.577h10.479c1.079 0 1.079-1.119 0.042-1.119h-7.243c-0.415 0-0.622-0.622-0.622-0.622s-0.29-0.913-0.872-0.913h-5.394c-0.788 0-0.581 0.913-0.581 0.913s1.204 10.235 1.286 10.857 0.726 0.806 0.726 0.806l1.411-9.052c0.104-0.663 0.56-0.85 0.768-0.871zM16.829 4.971h-12.281c-0.367 0-0.664 0.297-0.664 0.663l-1.286 8.2c0 0.367 0.297 0.664 0.664 0.664h12.281c0.366 0 0.664-0.297 0.664-0.664l1.286-8.2c0-0.367-0.297-0.663-0.664-0.663z" fill="#444444" />
</svg>
