<?xml version="1.0" encoding="utf-8"?>
<!-- Generated by IcoMoon.io -->
<!DOCTYPE svg PUBLIC "-//W3C//DTD SVG 1.1//EN" "http://www.w3.org/Graphics/SVG/1.1/DTD/svg11.dtd">
<svg version="1.1" xmlns="http://www.w3.org/2000/svg" xmlns:xlink="http://www.w3.org/1999/xlink" width="15" height="16" viewBox="0 0 15 16">
	<path d="M4.089 7.884q-0.661-1.446-0.661-3.313h-2.286v0.857q0 0.696 0.844 1.446t2.103 1.009zM13.714 5.429v-0.857h-2.286q0 1.866-0.661 3.313 1.259-0.259 2.103-1.009t0.844-1.446zM14.857 4.286v1.143q0 0.634-0.371 1.277t-1 1.161-1.545 0.871-1.924 0.397q-0.375 0.482-0.848 0.848-0.339 0.304-0.469 0.647t-0.129 0.799q0 0.482 0.272 0.813t0.871 0.33q0.67 0 1.192 0.406t0.522 1.022v0.571q0 0.125-0.080 0.205t-0.205 0.080h-7.429q-0.125 0-0.205-0.080t-0.080-0.205v-0.571q0-0.616 0.522-1.022t1.192-0.406q0.598 0 0.871-0.33t0.272-0.813q0-0.455-0.129-0.799t-0.469-0.647q-0.473-0.366-0.848-0.848-1.009-0.045-1.924-0.397t-1.545-0.871-1-1.161-0.371-1.277v-1.143q0-0.357 0.25-0.607t0.607-0.25h2.571v-0.857q0-0.589 0.42-1.009t1.009-0.42h5.143q0.589 0 1.009 0.42t0.42 1.009v0.857h2.571q0.357 0 0.607 0.25t0.25 0.607z" fill="#444444" />
</svg>
