<?xml version="1.0" encoding="utf-8"?>
<!-- Generated by IcoMoon.io -->
<!DOCTYPE svg PUBLIC "-//W3C//DTD SVG 1.1//EN" "http://www.w3.org/Graphics/SVG/1.1/DTD/svg11.dtd">
<svg version="1.1" xmlns="http://www.w3.org/2000/svg" xmlns:xlink="http://www.w3.org/1999/xlink" width="16" height="16" viewBox="0 0 16 16">
	<path d="M14.857 8.571q-1.357-2.107-3.402-3.152 0.545 0.929 0.545 2.009 0 1.652-1.174 2.826t-2.826 1.174-2.826-1.174-1.174-2.826q0-1.080 0.545-2.009-2.045 1.045-3.402 3.152 1.188 1.83 2.978 2.915t3.879 1.085 3.879-1.085 2.978-2.915zM8.429 5.143q0-0.179-0.125-0.304t-0.304-0.125q-1.116 0-1.915 0.799t-0.799 1.915q0 0.179 0.125 0.304t0.304 0.125 0.304-0.125 0.125-0.304q0-0.768 0.545-1.313t1.313-0.545q0.179 0 0.304-0.125t0.125-0.304zM16 8.571q0 0.304-0.179 0.616-1.25 2.054-3.362 3.29t-4.46 1.237-4.46-1.241-3.362-3.286q-0.179-0.313-0.179-0.616t0.179-0.616q1.25-2.045 3.362-3.286t4.46-1.241 4.46 1.241 3.362 3.286q0.179 0.313 0.179 0.616z" fill="#35ce0b" />
</svg>
