<?xml version="1.0" encoding="utf-8"?>
<!-- Generated by IcoMoon.io -->
<!DOCTYPE svg PUBLIC "-//W3C//DTD SVG 1.1//EN" "http://www.w3.org/Graphics/SVG/1.1/DTD/svg11.dtd">
<svg version="1.1" xmlns="http://www.w3.org/2000/svg" xmlns:xlink="http://www.w3.org/1999/xlink" width="15" height="16" viewBox="0 0 15 16">
	<path d="M11.429 12q0-0.232-0.17-0.402t-0.402-0.17-0.402 0.17-0.17 0.402 0.17 0.402 0.402 0.17 0.402-0.17 0.17-0.402zM13.714 12q0-0.232-0.17-0.402t-0.402-0.17-0.402 0.17-0.17 0.402 0.17 0.402 0.402 0.17 0.402-0.17 0.17-0.402zM14.857 10v2.857q0 0.357-0.25 0.607t-0.607 0.25h-13.143q-0.357 0-0.607-0.25t-0.25-0.607v-2.857q0-0.357 0.25-0.607t0.607-0.25h4.152l1.205 1.214q0.518 0.5 1.214 0.5t1.214-0.5l1.214-1.214h4.143q0.357 0 0.607 0.25t0.25 0.607zM11.955 4.92q0.152 0.366-0.125 0.625l-4 4q-0.161 0.17-0.402 0.17t-0.402-0.17l-4-4q-0.277-0.259-0.125-0.625 0.152-0.348 0.527-0.348h2.286v-4q0-0.232 0.17-0.402t0.402-0.17h2.286q0.232 0 0.402 0.17t0.17 0.402v4h2.286q0.375 0 0.527 0.348z" fill="#444444" />
</svg>
