<?xml version="1.0" encoding="utf-8"?>
<!-- Generated by IcoMoon.io -->
<!DOCTYPE svg PUBLIC "-//W3C//DTD SVG 1.1//EN" "http://www.w3.org/Graphics/SVG/1.1/DTD/svg11.dtd">
<svg version="1.1" xmlns="http://www.w3.org/2000/svg" xmlns:xlink="http://www.w3.org/1999/xlink" width="9" height="16" viewBox="0 0 9 16">
	<path d="M6.571 5.143q0 0.116-0.085 0.201t-0.201 0.085-0.201-0.085-0.085-0.201q0-0.411-0.482-0.634t-0.946-0.223q-0.116 0-0.201-0.085t-0.085-0.201 0.085-0.201 0.201-0.085q0.446 0 0.888 0.143t0.777 0.482 0.335 0.804zM8 5.143q0-0.643-0.308-1.196t-0.804-0.906-1.098-0.554-1.219-0.201-1.219 0.201-1.098 0.554-0.804 0.906-0.308 1.196q0 0.902 0.607 1.607 0.089 0.098 0.272 0.295t0.272 0.295q1.143 1.366 1.259 2.661h2.036q0.116-1.295 1.259-2.661 0.089-0.098 0.272-0.295t0.272-0.295q0.607-0.705 0.607-1.607zM9.143 5.143q0 1.384-0.92 2.393-0.402 0.438-0.665 0.777t-0.531 0.853-0.304 0.96q0.42 0.25 0.42 0.732 0 0.33-0.223 0.571 0.223 0.241 0.223 0.571 0 0.464-0.402 0.723 0.116 0.205 0.116 0.42 0 0.411-0.281 0.634t-0.692 0.223q-0.179 0.393-0.536 0.625t-0.777 0.232-0.777-0.232-0.536-0.625q-0.411 0-0.692-0.223t-0.281-0.634q0-0.214 0.116-0.42-0.402-0.259-0.402-0.723 0-0.33 0.223-0.571-0.223-0.241-0.223-0.571 0-0.482 0.42-0.732-0.036-0.446-0.304-0.96t-0.531-0.853-0.665-0.777q-0.92-1.009-0.92-2.393 0-0.884 0.397-1.647t1.045-1.268 1.464-0.795 1.665-0.29 1.665 0.29 1.464 0.795 1.045 1.268 0.397 1.647z" fill="#444444" />
</svg>
