<?xml version="1.0" encoding="utf-8"?>
<!-- Generated by IcoMoon.io -->
<!DOCTYPE svg PUBLIC "-//W3C//DTD SVG 1.1//EN" "http://www.w3.org/Graphics/SVG/1.1/DTD/svg11.dtd">
<svg version="1.1" xmlns="http://www.w3.org/2000/svg" xmlns:xlink="http://www.w3.org/1999/xlink" width="16" height="16" viewBox="0 0 16 16">
	<path d="M7.429 4.571q0-0.714-0.5-1.214t-1.214-0.5-1.214 0.5-0.5 1.214q0 0.375 0.17 0.741-0.366-0.17-0.741-0.17-0.714 0-1.214 0.5t-0.5 1.214 0.5 1.214 1.214 0.5 1.214-0.5 0.5-1.214q0-0.375-0.17-0.741 0.366 0.17 0.741 0.17t1.214-0.5 0.5-1.214zM15.027 10.857q0 0.152-0.438 0.589t-0.589 0.438q-0.080 0-0.254-0.143t-0.326-0.295-0.344-0.357-0.219-0.232l-0.857 0.857 1.964 1.964q0.25 0.25 0.25 0.607 0 0.375-0.348 0.723t-0.723 0.348q-0.357 0-0.607-0.25l-5.991-5.991q-1.571 1.17-3.259 1.17-1.455 0-2.371-0.915t-0.915-2.371q0-1.429 0.848-2.795t2.214-2.214 2.795-0.848q1.455 0 2.371 0.915t0.915 2.371q0 1.688-1.17 3.259l3.17 3.17 0.857-0.857q-0.027-0.027-0.232-0.219t-0.357-0.344-0.295-0.326-0.143-0.254q0-0.152 0.438-0.589t0.589-0.438q0.116 0 0.205 0.089 0.054 0.054 0.411 0.397t0.732 0.71 0.772 0.768 0.652 0.696 0.254 0.366z" fill="#444444" />
</svg>
