<?xml version="1.0" encoding="utf-8"?>
<!-- Generated by IcoMoon.io -->
<!DOCTYPE svg PUBLIC "-//W3C//DTD SVG 1.1//EN" "http://www.w3.org/Graphics/SVG/1.1/DTD/svg11.dtd">
<svg version="1.1" xmlns="http://www.w3.org/2000/svg" xmlns:xlink="http://www.w3.org/1999/xlink" width="16" height="16" viewBox="0 0 16 16">
	<path d="M7.5 12.938v-9.813c0 0-1.344-1.125-3.25-1.125s-3.25 1-3.25 1v9.938c0 0 1.344-0.969 3.25-0.969s3.25 0.969 3.25 0.969zM14.5 12.938v-9.813c0 0-1.344-1.125-3.25-1.125s-3.25 1-3.25 1v9.938c0 0 1.344-0.969 3.25-0.969s3.25 0.969 3.25 0.969zM15.5 4h-0.5v9.5h-6v0.5h-2.5v-0.5h-6v-9.5h-0.5v10h6v0.5h3.531l-0.031-0.5h6v-10z" fill="#444444" />
</svg>
