<?xml version="1.0" encoding="utf-8"?>
<!-- Generated by IcoMoon.io -->
<!DOCTYPE svg PUBLIC "-//W3C//DTD SVG 1.1//EN" "http://www.w3.org/Graphics/SVG/1.1/DTD/svg11.dtd">
<svg version="1.1" xmlns="http://www.w3.org/2000/svg" xmlns:xlink="http://www.w3.org/1999/xlink" width="14" height="16" viewBox="0 0 14 16">
	<path d="M13.714 8q0 1.393-0.545 2.661t-1.464 2.188-2.188 1.464-2.661 0.545q-1.536 0-2.92-0.647t-2.357-1.826q-0.063-0.089-0.058-0.201t0.076-0.183l1.223-1.232q0.089-0.080 0.223-0.080 0.143 0.018 0.205 0.107 0.652 0.848 1.598 1.313t2.009 0.464q0.929 0 1.772-0.362t1.46-0.978 0.978-1.46 0.362-1.772-0.362-1.772-0.978-1.46-1.46-0.978-1.772-0.362q-0.875 0-1.679 0.317t-1.429 0.906l1.223 1.232q0.277 0.268 0.125 0.616-0.152 0.357-0.527 0.357h-4q-0.232 0-0.402-0.17t-0.17-0.402v-4q0-0.375 0.357-0.527 0.348-0.152 0.616 0.125l1.161 1.152q0.955-0.902 2.183-1.397t2.54-0.496q1.393 0 2.661 0.545t2.188 1.464 1.464 2.188 0.545 2.661z" fill="#444444" />
</svg>
