<?xml version="1.0" encoding="utf-8"?>
<!-- Generated by IcoMoon.io -->
<!DOCTYPE svg PUBLIC "-//W3C//DTD SVG 1.1//EN" "http://www.w3.org/Graphics/SVG/1.1/DTD/svg11.dtd">
<svg version="1.1" xmlns="http://www.w3.org/2000/svg" xmlns:xlink="http://www.w3.org/1999/xlink" width="16" height="16" viewBox="0 0 16 16">
	<path d="M13.287 7.25h0.963v1.5h-0.963c-0.066 0.478-0.187 0.938-0.367 1.369l0.835 0.482-0.75 1.299-0.849-0.49c-0.291 0.368-0.63 0.696-1.005 0.979l0.5 0.866-1.299 0.75-0.511-0.883c-0.425 0.165-0.873 0.281-1.341 0.337v1.043h-1.5v-1.072c-0.456-0.070-0.896-0.191-1.307-0.366l-0.543 0.941-1.299-0.75 0.557-0.964c-0.348-0.28-0.659-0.601-0.931-0.957l-0.981 0.566-0.75-1.299 0.99-0.572c-0.16-0.405-0.273-0.834-0.334-1.28h-1.151v-1.5h1.151c0.061-0.446 0.173-0.875 0.334-1.28l-0.99-0.572 0.75-1.299 0.981 0.566c0.272-0.355 0.582-0.677 0.931-0.957l-0.556-0.962 1.299-0.75 0.543 0.941c0.412-0.175 0.851-0.296 1.307-0.365v-1.071h1.5v1.042c0.468 0.055 0.916 0.171 1.341 0.337l0.511-0.883 1.299 0.75-0.5 0.866c0.376 0.283 0.714 0.611 1.005 0.979l0.849-0.49 0.75 1.299-0.835 0.482c0.179 0.431 0.301 0.891 0.367 1.369zM7.745 4.745c-1.795 0-3.25 1.455-3.25 3.25s1.455 3.25 3.25 3.25 3.25-1.455 3.25-3.25-1.455-3.25-3.25-3.25zM7.75 9.25c-0.691 0-1.25-0.559-1.25-1.25s0.559-1.25 1.25-1.25 1.25 0.559 1.25 1.25-0.559 1.25-1.25 1.25z" fill="#444444" />
</svg>
