<?xml version="1.0" encoding="utf-8"?>
<!-- Generated by IcoMoon.io -->
<!DOCTYPE svg PUBLIC "-//W3C//DTD SVG 1.1//EN" "http://www.w3.org/Graphics/SVG/1.1/DTD/svg11.dtd">
<svg version="1.1" xmlns="http://www.w3.org/2000/svg" xmlns:xlink="http://www.w3.org/1999/xlink" width="16" height="16" viewBox="0 0 16 16">
	<path d="M4.955 11.92l0.696-1.259q-0.777-0.563-1.214-1.42t-0.438-1.813q0-1.080 0.545-2.009-2.045 1.045-3.402 3.152 1.491 2.304 3.813 3.348zM8.429 5.143q0-0.179-0.125-0.304t-0.304-0.125q-1.116 0-1.915 0.799t-0.799 1.915q0 0.179 0.125 0.304t0.304 0.125 0.304-0.125 0.125-0.304q0-0.768 0.545-1.313t1.313-0.545q0.179 0 0.304-0.125t0.125-0.304zM11.67 3.438q0 0.063-0.009 0.080-0.938 1.679-2.813 5.054t-2.821 5.063l-0.438 0.795q-0.089 0.143-0.25 0.143-0.107 0-1.196-0.625-0.143-0.089-0.143-0.25 0-0.107 0.393-0.777-1.277-0.58-2.353-1.545t-1.862-2.188q-0.179-0.277-0.179-0.616t0.179-0.616q1.366-2.098 3.393-3.313t4.429-1.214q0.795 0 1.607 0.152l0.482-0.866q0.089-0.143 0.25-0.143 0.045 0 0.161 0.054t0.277 0.138 0.295 0.165 0.281 0.165 0.174 0.103q0.143 0.089 0.143 0.241zM12 7.429q0 1.241-0.705 2.263t-1.866 1.469l2.5-4.482q0.071 0.402 0.071 0.75zM16 8.571q0 0.313-0.179 0.616-0.348 0.571-0.973 1.295-1.339 1.536-3.103 2.384t-3.746 0.848l0.661-1.179q1.893-0.161 3.504-1.223t2.692-2.741q-1.027-1.598-2.518-2.625l0.563-1q0.848 0.571 1.629 1.366t1.29 1.643q0.179 0.304 0.179 0.616z" fill="#be3526" />
</svg>
