<?xml version="1.0" encoding="utf-8"?>
<!-- Generated by IcoMoon.io -->
<!DOCTYPE svg PUBLIC "-//W3C//DTD SVG 1.1//EN" "http://www.w3.org/Graphics/SVG/1.1/DTD/svg11.dtd">
<svg version="1.1" xmlns="http://www.w3.org/2000/svg" xmlns:xlink="http://www.w3.org/1999/xlink" width="17" height="16" viewBox="0 0 17 16">
	<path d="M5.295 8q-1.446 0.045-2.366 1.143h-1.196q-0.732 0-1.232-0.362t-0.5-1.058q0-3.152 1.107-3.152 0.054 0 0.388 0.188t0.871 0.379 1.063 0.192q0.598 0 1.187-0.205-0.045 0.33-0.045 0.589 0 1.241 0.723 2.286zM14.857 13.688q0 1.071-0.652 1.692t-1.732 0.621h-7.804q-1.080 0-1.732-0.621t-0.652-1.692q0-0.473 0.031-0.924t0.125-0.973 0.237-0.969 0.384-0.871 0.554-0.723 0.763-0.478 0.996-0.179q0.089 0 0.384 0.192t0.652 0.429 0.955 0.429 1.205 0.192 1.205-0.192 0.955-0.429 0.652-0.429 0.384-0.192q0.545 0 0.996 0.179t0.763 0.478 0.554 0.723 0.384 0.871 0.237 0.969 0.125 0.973 0.031 0.924zM5.714 2.286q0 0.946-0.67 1.616t-1.616 0.67-1.616-0.67-0.67-1.616 0.67-1.616 1.616-0.67 1.616 0.67 0.67 1.616zM12 5.714q0 1.42-1.004 2.424t-2.424 1.004-2.424-1.004-1.004-2.424 1.004-2.424 2.424-1.004 2.424 1.004 1.004 2.424zM17.143 7.723q0 0.696-0.5 1.058t-1.232 0.362h-1.196q-0.92-1.098-2.366-1.143 0.723-1.045 0.723-2.286 0-0.259-0.045-0.589 0.589 0.205 1.188 0.205 0.527 0 1.063-0.192t0.871-0.379 0.388-0.188q1.107 0 1.107 3.152zM16 2.286q0 0.946-0.67 1.616t-1.616 0.67-1.616-0.67-0.67-1.616 0.67-1.616 1.616-0.67 1.616 0.67 0.67 1.616z" fill="#444444" />
</svg>
