<?xml version="1.0" encoding="utf-8"?>
<!-- Generated by IcoMoon.io -->
<!DOCTYPE svg PUBLIC "-//W3C//DTD SVG 1.1//EN" "http://www.w3.org/Graphics/SVG/1.1/DTD/svg11.dtd">
<svg version="1.1" xmlns="http://www.w3.org/2000/svg" xmlns:xlink="http://www.w3.org/1999/xlink" width="13" height="16" viewBox="0 0 13 16">
	<path d="M12.571 12.545q0 1.071-0.652 1.692t-1.732 0.621h-7.804q-1.080 0-1.732-0.621t-0.652-1.692q0-0.473 0.031-0.924t0.125-0.973 0.237-0.969 0.384-0.871 0.554-0.723 0.763-0.478 0.996-0.179q0.080 0 0.375 0.192t0.665 0.429 0.964 0.429 1.192 0.192 1.192-0.192 0.964-0.429 0.665-0.429 0.375-0.192q0.545 0 0.996 0.179t0.763 0.478 0.554 0.723 0.384 0.871 0.237 0.969 0.125 0.973 0.031 0.924zM9.714 4.571q0 1.42-1.004 2.424t-2.424 1.004-2.424-1.004-1.004-2.424 1.004-2.424 2.424-1.004 2.424 1.004 1.004 2.424z" fill="#444444" />
</svg>
