<?xml version="1.0" encoding="utf-8"?>
<!-- Generated by IcoMoon.io -->
<!DOCTYPE svg PUBLIC "-//W3C//DTD SVG 1.1//EN" "http://www.w3.org/Graphics/SVG/1.1/DTD/svg11.dtd">
<svg version="1.1" xmlns="http://www.w3.org/2000/svg" xmlns:xlink="http://www.w3.org/1999/xlink" width="16" height="16" viewBox="0 0 16 16">
	<path d="M16 11.143v2.857q0 0.357-0.25 0.607t-0.607 0.25h-2.857q-0.357 0-0.607-0.25t-0.25-0.607v-2.857q0-0.357 0.25-0.607t0.607-0.25h0.857v-1.714h-4.571v1.714h0.857q0.357 0 0.607 0.25t0.25 0.607v2.857q0 0.357-0.25 0.607t-0.607 0.25h-2.857q-0.357 0-0.607-0.25t-0.25-0.607v-2.857q0-0.357 0.25-0.607t0.607-0.25h0.857v-1.714h-4.571v1.714h0.857q0.357 0 0.607 0.25t0.25 0.607v2.857q0 0.357-0.25 0.607t-0.607 0.25h-2.857q-0.357 0-0.607-0.25t-0.25-0.607v-2.857q0-0.357 0.25-0.607t0.607-0.25h0.857v-1.714q0-0.464 0.339-0.804t0.804-0.339h4.571v-1.714h-0.857q-0.357 0-0.607-0.25t-0.25-0.607v-2.857q0-0.357 0.25-0.607t0.607-0.25h2.857q0.357 0 0.607 0.25t0.25 0.607v2.857q0 0.357-0.25 0.607t-0.607 0.25h-0.857v1.714h4.571q0.464 0 0.804 0.339t0.339 0.804v1.714h0.857q0.357 0 0.607 0.25t0.25 0.607z" fill="#444444" />
</svg>
