<?xml version="1.0" encoding="utf-8"?>
<!-- Generated by IcoMoon.io -->
<!DOCTYPE svg PUBLIC "-//W3C//DTD SVG 1.1//EN" "http://www.w3.org/Graphics/SVG/1.1/DTD/svg11.dtd">
<svg version="1.1" xmlns="http://www.w3.org/2000/svg" xmlns:xlink="http://www.w3.org/1999/xlink" width="16" height="16" viewBox="0 0 16 16">
	<path d="M15.143 3.429q0.357 0 0.607 0.25t0.25 0.607v10.857q0 0.357-0.25 0.607t-0.607 0.25h-8.571q-0.357 0-0.607-0.25t-0.25-0.607v-2.571h-4.857q-0.357 0-0.607-0.25t-0.25-0.607v-6q0-0.357 0.179-0.786t0.429-0.679l3.643-3.643q0.25-0.25 0.679-0.429t0.786-0.179h3.714q0.357 0 0.607 0.25t0.25 0.607v2.929q0.607-0.357 1.143-0.357h3.714zM10.286 5.33l-2.67 2.67h2.67v-2.67zM4.571 1.902l-2.67 2.67h2.67v-2.67zM6.321 7.679l2.821-2.821v-3.714h-3.429v3.714q0 0.357-0.25 0.607t-0.607 0.25h-3.714v5.714h4.571v-2.286q0-0.357 0.179-0.786t0.429-0.679zM14.857 14.857v-10.286h-3.429v3.714q0 0.357-0.25 0.607t-0.607 0.25h-3.714v5.714h8z" fill="#444444" />
</svg>
