<?xml version="1.0" encoding="utf-8"?>
<!-- Generated by IcoMoon.io -->
<!DOCTYPE svg PUBLIC "-//W3C//DTD SVG 1.1//EN" "http://www.w3.org/Graphics/SVG/1.1/DTD/svg11.dtd">
<svg version="1.1" xmlns="http://www.w3.org/2000/svg" xmlns:xlink="http://www.w3.org/1999/xlink" width="13" height="16" viewBox="0 0 13 16">
	<path d="M4.571 6.571v5.143q0 0.125-0.080 0.205t-0.205 0.080h-0.571q-0.125 0-0.205-0.080t-0.080-0.205v-5.143q0-0.125 0.080-0.205t0.205-0.080h0.571q0.125 0 0.205 0.080t0.080 0.205zM6.857 6.571v5.143q0 0.125-0.080 0.205t-0.205 0.080h-0.571q-0.125 0-0.205-0.080t-0.080-0.205v-5.143q0-0.125 0.080-0.205t0.205-0.080h0.571q0.125 0 0.205 0.080t0.080 0.205zM9.143 6.571v5.143q0 0.125-0.080 0.205t-0.205 0.080h-0.571q-0.125 0-0.205-0.080t-0.080-0.205v-5.143q0-0.125 0.080-0.205t0.205-0.080h0.571q0.125 0 0.205 0.080t0.080 0.205zM10.286 13.036v-8.464h-8v8.464q0 0.196 0.063 0.362t0.129 0.241 0.094 0.076h7.429q0.027 0 0.094-0.076t0.129-0.241 0.063-0.362zM4.286 3.429h4l-0.429-1.045q-0.063-0.080-0.152-0.098h-2.83q-0.089 0.018-0.152 0.098zM12.571 3.714v0.571q0 0.125-0.080 0.205t-0.205 0.080h-0.857v8.464q0 0.741-0.42 1.281t-1.009 0.54h-7.429q-0.589 0-1.009-0.522t-0.42-1.263v-8.5h-0.857q-0.125 0-0.205-0.080t-0.080-0.205v-0.571q0-0.125 0.080-0.205t0.205-0.080h2.759l0.625-1.491q0.134-0.33 0.482-0.563t0.705-0.232h2.857q0.357 0 0.705 0.232t0.482 0.563l0.625 1.491h2.759q0.125 0 0.205 0.080t0.080 0.205z" fill="#444444" />
</svg>
