<?xml version="1.0" encoding="utf-8"?>
<!-- Generated by IcoMoon.io -->
<!DOCTYPE svg PUBLIC "-//W3C//DTD SVG 1.1//EN" "http://www.w3.org/Graphics/SVG/1.1/DTD/svg11.dtd">
<svg version="1.1" xmlns="http://www.w3.org/2000/svg" xmlns:xlink="http://www.w3.org/1999/xlink" width="15" height="16" viewBox="0 0 15 16">
	<path d="M14.384 7.429q0 0.473-0.33 0.804l-5.813 5.821q-0.348 0.33-0.813 0.33-0.473 0-0.804-0.33l-5.813-5.821q-0.339-0.321-0.339-0.804 0-0.473 0.339-0.813l0.661-0.67q0.348-0.33 0.813-0.33 0.473 0 0.804 0.33l2.625 2.625v-6.286q0-0.464 0.339-0.804t0.804-0.339h1.143q0.464 0 0.804 0.339t0.339 0.804v6.286l2.625-2.625q0.33-0.33 0.804-0.33 0.464 0 0.813 0.33l0.67 0.67q0.33 0.348 0.33 0.813z" fill="#444444" />
</svg>
