<?xml version="1.0" encoding="utf-8"?>
<!-- Generated by IcoMoon.io -->
<!DOCTYPE svg PUBLIC "-//W3C//DTD SVG 1.1//EN" "http://www.w3.org/Graphics/SVG/1.1/DTD/svg11.dtd">
<svg version="1.1" xmlns="http://www.w3.org/2000/svg" xmlns:xlink="http://www.w3.org/1999/xlink" width="14" height="16" viewBox="0 0 14 16">
	<path d="M13.714 8v1.143q0 0.473-0.29 0.808t-0.754 0.335h-6.286l2.616 2.625q0.339 0.321 0.339 0.804t-0.339 0.804l-0.67 0.679q-0.33 0.33-0.804 0.33-0.464 0-0.813-0.33l-5.813-5.821q-0.33-0.33-0.33-0.804 0-0.464 0.33-0.813l5.813-5.804q0.339-0.339 0.813-0.339 0.464 0 0.804 0.339l0.67 0.661q0.339 0.339 0.339 0.813t-0.339 0.813l-2.616 2.616h6.286q0.464 0 0.754 0.335t0.29 0.808z" fill="#444444" />
</svg>
