<?xml version="1.0" encoding="utf-8"?>
<!-- Generated by IcoMoon.io -->
<!DOCTYPE svg PUBLIC "-//W3C//DTD SVG 1.1//EN" "http://www.w3.org/Graphics/SVG/1.1/DTD/svg11.dtd">
<svg version="1.1" xmlns="http://www.w3.org/2000/svg" xmlns:xlink="http://www.w3.org/1999/xlink" width="15" height="16" viewBox="0 0 15 16">
	<path d="M10.286 7.429q0-1.652-1.174-2.826t-2.826-1.174-2.826 1.174-1.174 2.826 1.174 2.826 2.826 1.174 2.826-1.174 1.174-2.826zM14.857 14.857q0 0.464-0.339 0.804t-0.804 0.339q-0.482 0-0.804-0.339l-3.063-3.054q-1.598 1.107-3.563 1.107-1.277 0-2.442-0.496t-2.009-1.339-1.339-2.009-0.496-2.442 0.496-2.442 1.339-2.009 2.009-1.339 2.442-0.496 2.442 0.496 2.009 1.339 1.339 2.009 0.496 2.442q0 1.964-1.107 3.563l3.063 3.063q0.33 0.33 0.33 0.804z" fill="#444444" />
</svg>
