<?xml version="1.0" encoding="utf-8"?>
<!-- Generated by IcoMoon.io -->
<!DOCTYPE svg PUBLIC "-//W3C//DTD SVG 1.1//EN" "http://www.w3.org/Graphics/SVG/1.1/DTD/svg11.dtd">
<svg version="1.1" xmlns="http://www.w3.org/2000/svg" xmlns:xlink="http://www.w3.org/1999/xlink" width="14" height="16" viewBox="0 0 14 16">
	<path d="M13.143 8.571q0 0.482-0.33 0.813l-5.813 5.813q-0.348 0.33-0.813 0.33-0.455 0-0.804-0.33l-0.67-0.67q-0.339-0.339-0.339-0.813t0.339-0.813l2.616-2.616h-6.286q-0.464 0-0.754-0.335t-0.29-0.808v-1.143q0-0.473 0.29-0.808t0.754-0.335h6.286l-2.616-2.625q-0.339-0.321-0.339-0.804t0.339-0.804l0.67-0.67q0.339-0.339 0.804-0.339 0.473 0 0.813 0.339l5.813 5.813q0.33 0.313 0.33 0.804z" fill="#444444" />
</svg>
