<?xml version="1.0" encoding="utf-8"?>
<!-- Generated by IcoMoon.io -->
<!DOCTYPE svg PUBLIC "-//W3C//DTD SVG 1.1//EN" "http://www.w3.org/Graphics/SVG/1.1/DTD/svg11.dtd">
<svg version="1.1" xmlns="http://www.w3.org/2000/svg" xmlns:xlink="http://www.w3.org/1999/xlink" width="16" height="16" viewBox="0 0 16 16">
	<path d="M13.25 13.5h-1.5c-0.138 0-0.25-0.112-0.25-0.25s0.112-0.25 0.25-0.25h1.25v-1.25c0-0.138 0.112-0.25 0.25-0.25 0.137 0 0.25 0.112 0.25 0.25v1.5c0 0.138-0.113 0.25-0.25 0.25zM13.25 10.5c-0.138 0-0.25-0.112-0.25-0.25v-1.5c0-0.138 0.112-0.25 0.25-0.25 0.137 0 0.25 0.112 0.25 0.25v1.5c0 0.138-0.113 0.25-0.25 0.25zM13.25 7.5c-0.138 0-0.25-0.112-0.25-0.25v-1.5c0-0.138 0.112-0.25 0.25-0.25 0.137 0 0.25 0.112 0.25 0.25v1.5c0 0.138-0.113 0.25-0.25 0.25zM13.25 4.5c-0.138 0-0.25-0.112-0.25-0.25v-1.25h-1.25c-0.138 0-0.25-0.112-0.25-0.25s0.112-0.25 0.25-0.25h1.5c0.137 0 0.25 0.112 0.25 0.25v1.5c0 0.138-0.113 0.25-0.25 0.25zM10.25 13.5h-1.5c-0.138 0-0.25-0.112-0.25-0.25s0.112-0.25 0.25-0.25h1.5c0.137 0 0.25 0.112 0.25 0.25s-0.113 0.25-0.25 0.25zM10.25 3h-1.5c-0.138 0-0.25-0.112-0.25-0.25s0.112-0.25 0.25-0.25h1.5c0.137 0 0.25 0.112 0.25 0.25s-0.113 0.25-0.25 0.25zM9.969 7.5c0.276 0 0.5 0.223 0.5 0.5 0 0.276-0.224 0.5-0.5 0.5h-1.5v1.5c0 0.276-0.224 0.5-0.5 0.5-0.277 0-0.5-0.224-0.5-0.5v-1.5h-1.5c-0.276 0-0.5-0.224-0.5-0.5 0-0.277 0.223-0.5 0.5-0.5h1.5v-1.5c0-0.277 0.223-0.5 0.5-0.5 0.276 0 0.5 0.223 0.5 0.5v1.5h1.5zM7.25 3h-1.5c-0.138 0-0.25-0.112-0.25-0.25s0.112-0.25 0.25-0.25h1.5c0.138 0 0.25 0.112 0.25 0.25s-0.112 0.25-0.25 0.25zM4.25 13.5h-1.5c-0.138 0-0.25-0.112-0.25-0.25v-1.5c0-0.138 0.112-0.25 0.25-0.25s0.25 0.112 0.25 0.25v1.25h1.25c0.138 0 0.25 0.112 0.25 0.25s-0.112 0.25-0.25 0.25zM4.25 3h-1.25v1.25c0 0.138-0.112 0.25-0.25 0.25s-0.25-0.112-0.25-0.25v-1.5c0-0.138 0.112-0.25 0.25-0.25h1.5c0.138 0 0.25 0.112 0.25 0.25s-0.112 0.25-0.25 0.25zM2.75 5.5c0.138 0 0.25 0.112 0.25 0.25v1.5c0 0.138-0.112 0.25-0.25 0.25s-0.25-0.112-0.25-0.25v-1.5c0-0.138 0.112-0.25 0.25-0.25zM2.75 8.5c0.138 0 0.25 0.112 0.25 0.25v1.5c0 0.138-0.112 0.25-0.25 0.25s-0.25-0.112-0.25-0.25v-1.5c0-0.138 0.112-0.25 0.25-0.25zM5.75 13h1.5c0.138 0 0.25 0.112 0.25 0.25s-0.112 0.25-0.25 0.25h-1.5c-0.138 0-0.25-0.112-0.25-0.25s0.112-0.25 0.25-0.25z" fill="#444444" />
</svg>
