<?xml version="1.0" encoding="utf-8"?>
<!-- Generated by IcoMoon.io -->
<!DOCTYPE svg PUBLIC "-//W3C//DTD SVG 1.1//EN" "http://www.w3.org/Graphics/SVG/1.1/DTD/svg11.dtd">
<svg version="1.1" xmlns="http://www.w3.org/2000/svg" xmlns:xlink="http://www.w3.org/1999/xlink" width="15" height="16" viewBox="0 0 15 16">
	<path d="M14.384 8.67q0 0.455-0.33 0.804l-0.67 0.67q-0.339 0.339-0.813 0.339-0.482 0-0.804-0.339l-2.625-2.616v6.286q0 0.464-0.335 0.754t-0.808 0.29h-1.143q-0.473 0-0.808-0.29t-0.335-0.754v-6.286l-2.625 2.616q-0.321 0.339-0.804 0.339t-0.804-0.339l-0.67-0.67q-0.339-0.339-0.339-0.804 0-0.473 0.339-0.813l5.813-5.813q0.313-0.33 0.804-0.33 0.482 0 0.813 0.33l5.813 5.813q0.33 0.348 0.33 0.813z" fill="#444444" />
</svg>
